<svg xmlns="http://www.w3.org/2000/svg" xmlns:xlink="http://www.w3.org/1999/xlink" width="150" zoomAndPan="magnify" viewBox="0 0 112.5 112.499997" height="150" preserveAspectRatio="xMidYMid meet" version="1.0"><defs><g/><clipPath id="4dbd64dd12"><path d="M 0 0 L 112.003906 0 L 112.003906 112.003906 L 0 112.003906 Z M 0 0 " clip-rule="nonzero"/></clipPath><linearGradient x1="0" gradientTransform="matrix(0.746681, 0, 0, 0.746681, 0.0000015, 0.000000995575)" y1="75" x2="149.999994" gradientUnits="userSpaceOnUse" y2="75" id="d7158b36e4"><stop stop-opacity="1" stop-color="rgb(31.799316%, 43.899536%, 100%)" offset="0"/><stop stop-opacity="1" stop-color="rgb(32.064819%, 43.884277%, 99.908447%)" offset="0.00390625"/><stop stop-opacity="1" stop-color="rgb(32.331848%, 43.869019%, 99.81842%)" offset="0.0078125"/><stop stop-opacity="1" stop-color="rgb(32.597351%, 43.85376%, 99.728394%)" offset="0.0117188"/><stop stop-opacity="1" stop-color="rgb(32.86438%, 43.838501%, 99.638367%)" offset="0.015625"/><stop stop-opacity="1" stop-color="rgb(33.129883%, 43.823242%, 99.54834%)" offset="0.0195312"/><stop stop-opacity="1" stop-color="rgb(33.396912%, 43.807983%, 99.458313%)" offset="0.0234375"/><stop stop-opacity="1" stop-color="rgb(33.66394%, 43.792725%, 99.36676%)" offset="0.0273438"/><stop stop-opacity="1" stop-color="rgb(33.930969%, 43.777466%, 99.276733%)" offset="0.03125"/><stop stop-opacity="1" stop-color="rgb(34.196472%, 43.762207%, 99.186707%)" offset="0.0351562"/><stop stop-opacity="1" stop-color="rgb(34.463501%, 43.746948%, 99.09668%)" offset="0.0390625"/><stop stop-opacity="1" stop-color="rgb(34.729004%, 43.731689%, 99.006653%)" offset="0.0429688"/><stop stop-opacity="1" stop-color="rgb(34.996033%, 43.716431%, 98.916626%)" offset="0.046875"/><stop stop-opacity="1" stop-color="rgb(35.261536%, 43.701172%, 98.826599%)" offset="0.0507812"/><stop stop-opacity="1" stop-color="rgb(35.528564%, 43.685913%, 98.736572%)" offset="0.0546875"/><stop stop-opacity="1" stop-color="rgb(35.794067%, 43.670654%, 98.64502%)" offset="0.0585938"/><stop stop-opacity="1" stop-color="rgb(36.061096%, 43.655396%, 98.554993%)" offset="0.0625"/><stop stop-opacity="1" stop-color="rgb(36.328125%, 43.640137%, 98.464966%)" offset="0.0664062"/><stop stop-opacity="1" stop-color="rgb(36.595154%, 43.624878%, 98.374939%)" offset="0.0703125"/><stop stop-opacity="1" stop-color="rgb(36.860657%, 43.609619%, 98.284912%)" offset="0.0742188"/><stop stop-opacity="1" stop-color="rgb(37.127686%, 43.59436%, 98.194885%)" offset="0.078125"/><stop stop-opacity="1" stop-color="rgb(37.393188%, 43.579102%, 98.104858%)" offset="0.0820312"/><stop stop-opacity="1" stop-color="rgb(37.660217%, 43.563843%, 98.014832%)" offset="0.0859375"/><stop stop-opacity="1" stop-color="rgb(37.92572%, 43.548584%, 97.923279%)" offset="0.0898438"/><stop stop-opacity="1" stop-color="rgb(38.192749%, 43.533325%, 97.833252%)" offset="0.09375"/><stop stop-opacity="1" stop-color="rgb(38.458252%, 43.518066%, 97.743225%)" offset="0.0976562"/><stop stop-opacity="1" stop-color="rgb(38.725281%, 43.502808%, 97.653198%)" offset="0.101562"/><stop stop-opacity="1" stop-color="rgb(38.99231%, 43.487549%, 97.563171%)" offset="0.105469"/><stop stop-opacity="1" stop-color="rgb(39.259338%, 43.47229%, 97.473145%)" offset="0.109375"/><stop stop-opacity="1" stop-color="rgb(39.524841%, 43.457031%, 97.381592%)" offset="0.113281"/><stop stop-opacity="1" stop-color="rgb(39.79187%, 43.441772%, 97.291565%)" offset="0.117188"/><stop stop-opacity="1" stop-color="rgb(40.057373%, 43.426514%, 97.201538%)" offset="0.121094"/><stop stop-opacity="1" stop-color="rgb(40.324402%, 43.411255%, 97.111511%)" offset="0.125"/><stop stop-opacity="1" stop-color="rgb(40.589905%, 43.395996%, 97.021484%)" offset="0.128906"/><stop stop-opacity="1" stop-color="rgb(40.856934%, 43.380737%, 96.931458%)" offset="0.132812"/><stop stop-opacity="1" stop-color="rgb(41.122437%, 43.365479%, 96.841431%)" offset="0.136719"/><stop stop-opacity="1" stop-color="rgb(41.389465%, 43.35022%, 96.751404%)" offset="0.140625"/><stop stop-opacity="1" stop-color="rgb(41.654968%, 43.334961%, 96.659851%)" offset="0.144531"/><stop stop-opacity="1" stop-color="rgb(41.921997%, 43.319702%, 96.569824%)" offset="0.148438"/><stop stop-opacity="1" stop-color="rgb(42.189026%, 43.304443%, 96.479797%)" offset="0.152344"/><stop stop-opacity="1" stop-color="rgb(42.456055%, 43.289185%, 96.389771%)" offset="0.15625"/><stop stop-opacity="1" stop-color="rgb(42.721558%, 43.273926%, 96.299744%)" offset="0.160156"/><stop stop-opacity="1" stop-color="rgb(42.988586%, 43.258667%, 96.209717%)" offset="0.164062"/><stop stop-opacity="1" stop-color="rgb(43.254089%, 43.243408%, 96.11969%)" offset="0.167969"/><stop stop-opacity="1" stop-color="rgb(43.521118%, 43.229675%, 96.029663%)" offset="0.171875"/><stop stop-opacity="1" stop-color="rgb(43.786621%, 43.214417%, 95.93811%)" offset="0.175781"/><stop stop-opacity="1" stop-color="rgb(44.05365%, 43.199158%, 95.848083%)" offset="0.179688"/><stop stop-opacity="1" stop-color="rgb(44.319153%, 43.183899%, 95.758057%)" offset="0.183594"/><stop stop-opacity="1" stop-color="rgb(44.586182%, 43.16864%, 95.66803%)" offset="0.1875"/><stop stop-opacity="1" stop-color="rgb(44.85321%, 43.153381%, 95.578003%)" offset="0.191406"/><stop stop-opacity="1" stop-color="rgb(45.120239%, 43.138123%, 95.487976%)" offset="0.195312"/><stop stop-opacity="1" stop-color="rgb(45.385742%, 43.122864%, 95.396423%)" offset="0.199219"/><stop stop-opacity="1" stop-color="rgb(45.652771%, 43.107605%, 95.306396%)" offset="0.203125"/><stop stop-opacity="1" stop-color="rgb(45.918274%, 43.092346%, 95.21637%)" offset="0.207031"/><stop stop-opacity="1" stop-color="rgb(46.185303%, 43.077087%, 95.126343%)" offset="0.210938"/><stop stop-opacity="1" stop-color="rgb(46.450806%, 43.061829%, 95.036316%)" offset="0.214844"/><stop stop-opacity="1" stop-color="rgb(46.717834%, 43.04657%, 94.946289%)" offset="0.21875"/><stop stop-opacity="1" stop-color="rgb(46.983337%, 43.031311%, 94.856262%)" offset="0.222656"/><stop stop-opacity="1" stop-color="rgb(47.250366%, 43.016052%, 94.766235%)" offset="0.226562"/><stop stop-opacity="1" stop-color="rgb(47.515869%, 43.000793%, 94.674683%)" offset="0.230469"/><stop stop-opacity="1" stop-color="rgb(47.782898%, 42.985535%, 94.584656%)" offset="0.234375"/><stop stop-opacity="1" stop-color="rgb(48.049927%, 42.970276%, 94.494629%)" offset="0.238281"/><stop stop-opacity="1" stop-color="rgb(48.316956%, 42.955017%, 94.404602%)" offset="0.242188"/><stop stop-opacity="1" stop-color="rgb(48.582458%, 42.939758%, 94.314575%)" offset="0.246094"/><stop stop-opacity="1" stop-color="rgb(48.849487%, 42.9245%, 94.224548%)" offset="0.25"/><stop stop-opacity="1" stop-color="rgb(49.11499%, 42.909241%, 94.134521%)" offset="0.253906"/><stop stop-opacity="1" stop-color="rgb(49.382019%, 42.893982%, 94.044495%)" offset="0.257812"/><stop stop-opacity="1" stop-color="rgb(49.647522%, 42.878723%, 93.952942%)" offset="0.261719"/><stop stop-opacity="1" stop-color="rgb(49.914551%, 42.863464%, 93.862915%)" offset="0.265625"/><stop stop-opacity="1" stop-color="rgb(50.180054%, 42.848206%, 93.772888%)" offset="0.269531"/><stop stop-opacity="1" stop-color="rgb(50.447083%, 42.832947%, 93.682861%)" offset="0.273438"/><stop stop-opacity="1" stop-color="rgb(50.714111%, 42.817688%, 93.592834%)" offset="0.277344"/><stop stop-opacity="1" stop-color="rgb(50.98114%, 42.802429%, 93.502808%)" offset="0.28125"/><stop stop-opacity="1" stop-color="rgb(51.246643%, 42.78717%, 93.411255%)" offset="0.285156"/><stop stop-opacity="1" stop-color="rgb(51.513672%, 42.771912%, 93.321228%)" offset="0.289062"/><stop stop-opacity="1" stop-color="rgb(51.779175%, 42.756653%, 93.231201%)" offset="0.292969"/><stop stop-opacity="1" stop-color="rgb(52.046204%, 42.741394%, 93.141174%)" offset="0.296875"/><stop stop-opacity="1" stop-color="rgb(52.311707%, 42.726135%, 93.051147%)" offset="0.300781"/><stop stop-opacity="1" stop-color="rgb(52.578735%, 42.710876%, 92.961121%)" offset="0.304688"/><stop stop-opacity="1" stop-color="rgb(52.844238%, 42.695618%, 92.871094%)" offset="0.308594"/><stop stop-opacity="1" stop-color="rgb(53.111267%, 42.680359%, 92.781067%)" offset="0.3125"/><stop stop-opacity="1" stop-color="rgb(53.37677%, 42.6651%, 92.689514%)" offset="0.316406"/><stop stop-opacity="1" stop-color="rgb(53.643799%, 42.649841%, 92.599487%)" offset="0.320312"/><stop stop-opacity="1" stop-color="rgb(53.910828%, 42.634583%, 92.50946%)" offset="0.324219"/><stop stop-opacity="1" stop-color="rgb(54.177856%, 42.619324%, 92.419434%)" offset="0.328125"/><stop stop-opacity="1" stop-color="rgb(54.443359%, 42.604065%, 92.329407%)" offset="0.332031"/><stop stop-opacity="1" stop-color="rgb(54.710388%, 42.588806%, 92.23938%)" offset="0.335938"/><stop stop-opacity="1" stop-color="rgb(54.975891%, 42.573547%, 92.149353%)" offset="0.339844"/><stop stop-opacity="1" stop-color="rgb(55.24292%, 42.558289%, 92.059326%)" offset="0.34375"/><stop stop-opacity="1" stop-color="rgb(55.508423%, 42.54303%, 91.967773%)" offset="0.347656"/><stop stop-opacity="1" stop-color="rgb(55.775452%, 42.527771%, 91.877747%)" offset="0.351562"/><stop stop-opacity="1" stop-color="rgb(56.040955%, 42.512512%, 91.78772%)" offset="0.355469"/><stop stop-opacity="1" stop-color="rgb(56.307983%, 42.497253%, 91.697693%)" offset="0.359375"/><stop stop-opacity="1" stop-color="rgb(56.575012%, 42.481995%, 91.607666%)" offset="0.363281"/><stop stop-opacity="1" stop-color="rgb(56.842041%, 42.466736%, 91.517639%)" offset="0.367188"/><stop stop-opacity="1" stop-color="rgb(57.107544%, 42.451477%, 91.426086%)" offset="0.371094"/><stop stop-opacity="1" stop-color="rgb(57.374573%, 42.436218%, 91.33606%)" offset="0.375"/><stop stop-opacity="1" stop-color="rgb(57.640076%, 42.420959%, 91.246033%)" offset="0.378906"/><stop stop-opacity="1" stop-color="rgb(57.907104%, 42.405701%, 91.156006%)" offset="0.382812"/><stop stop-opacity="1" stop-color="rgb(58.172607%, 42.390442%, 91.065979%)" offset="0.386719"/><stop stop-opacity="1" stop-color="rgb(58.439636%, 42.375183%, 90.975952%)" offset="0.390625"/><stop stop-opacity="1" stop-color="rgb(58.705139%, 42.359924%, 90.885925%)" offset="0.394531"/><stop stop-opacity="1" stop-color="rgb(58.972168%, 42.344666%, 90.795898%)" offset="0.398438"/><stop stop-opacity="1" stop-color="rgb(59.239197%, 42.329407%, 90.704346%)" offset="0.402344"/><stop stop-opacity="1" stop-color="rgb(59.506226%, 42.314148%, 90.614319%)" offset="0.40625"/><stop stop-opacity="1" stop-color="rgb(59.771729%, 42.298889%, 90.524292%)" offset="0.410156"/><stop stop-opacity="1" stop-color="rgb(60.038757%, 42.285156%, 90.434265%)" offset="0.414062"/><stop stop-opacity="1" stop-color="rgb(60.30426%, 42.269897%, 90.344238%)" offset="0.417969"/><stop stop-opacity="1" stop-color="rgb(60.571289%, 42.254639%, 90.254211%)" offset="0.421875"/><stop stop-opacity="1" stop-color="rgb(60.836792%, 42.23938%, 90.164185%)" offset="0.425781"/><stop stop-opacity="1" stop-color="rgb(61.103821%, 42.224121%, 90.074158%)" offset="0.429688"/><stop stop-opacity="1" stop-color="rgb(61.369324%, 42.208862%, 89.982605%)" offset="0.433594"/><stop stop-opacity="1" stop-color="rgb(61.636353%, 42.193604%, 89.892578%)" offset="0.4375"/><stop stop-opacity="1" stop-color="rgb(61.901855%, 42.178345%, 89.802551%)" offset="0.441406"/><stop stop-opacity="1" stop-color="rgb(62.168884%, 42.163086%, 89.712524%)" offset="0.445312"/><stop stop-opacity="1" stop-color="rgb(62.435913%, 42.147827%, 89.622498%)" offset="0.449219"/><stop stop-opacity="1" stop-color="rgb(62.702942%, 42.132568%, 89.532471%)" offset="0.453125"/><stop stop-opacity="1" stop-color="rgb(62.968445%, 42.11731%, 89.440918%)" offset="0.457031"/><stop stop-opacity="1" stop-color="rgb(63.235474%, 42.102051%, 89.350891%)" offset="0.460938"/><stop stop-opacity="1" stop-color="rgb(63.500977%, 42.086792%, 89.260864%)" offset="0.464844"/><stop stop-opacity="1" stop-color="rgb(63.768005%, 42.071533%, 89.170837%)" offset="0.46875"/><stop stop-opacity="1" stop-color="rgb(64.033508%, 42.056274%, 89.080811%)" offset="0.472656"/><stop stop-opacity="1" stop-color="rgb(64.300537%, 42.041016%, 88.990784%)" offset="0.476562"/><stop stop-opacity="1" stop-color="rgb(64.56604%, 42.025757%, 88.900757%)" offset="0.480469"/><stop stop-opacity="1" stop-color="rgb(64.833069%, 42.010498%, 88.81073%)" offset="0.484375"/><stop stop-opacity="1" stop-color="rgb(65.100098%, 41.995239%, 88.719177%)" offset="0.488281"/><stop stop-opacity="1" stop-color="rgb(65.367126%, 41.97998%, 88.62915%)" offset="0.492188"/><stop stop-opacity="1" stop-color="rgb(65.632629%, 41.964722%, 88.539124%)" offset="0.496094"/><stop stop-opacity="1" stop-color="rgb(65.899658%, 41.949463%, 88.449097%)" offset="0.5"/><stop stop-opacity="1" stop-color="rgb(66.165161%, 41.934204%, 88.35907%)" offset="0.503906"/><stop stop-opacity="1" stop-color="rgb(66.43219%, 41.918945%, 88.269043%)" offset="0.507812"/><stop stop-opacity="1" stop-color="rgb(66.697693%, 41.903687%, 88.179016%)" offset="0.511719"/><stop stop-opacity="1" stop-color="rgb(66.964722%, 41.888428%, 88.088989%)" offset="0.515625"/><stop stop-opacity="1" stop-color="rgb(67.230225%, 41.873169%, 87.997437%)" offset="0.519531"/><stop stop-opacity="1" stop-color="rgb(67.497253%, 41.85791%, 87.90741%)" offset="0.523438"/><stop stop-opacity="1" stop-color="rgb(67.762756%, 41.842651%, 87.817383%)" offset="0.527344"/><stop stop-opacity="1" stop-color="rgb(68.029785%, 41.827393%, 87.727356%)" offset="0.53125"/><stop stop-opacity="1" stop-color="rgb(68.296814%, 41.812134%, 87.637329%)" offset="0.535156"/><stop stop-opacity="1" stop-color="rgb(68.563843%, 41.796875%, 87.547302%)" offset="0.539062"/><stop stop-opacity="1" stop-color="rgb(68.829346%, 41.781616%, 87.45575%)" offset="0.542969"/><stop stop-opacity="1" stop-color="rgb(69.096375%, 41.766357%, 87.365723%)" offset="0.546875"/><stop stop-opacity="1" stop-color="rgb(69.361877%, 41.751099%, 87.275696%)" offset="0.550781"/><stop stop-opacity="1" stop-color="rgb(69.628906%, 41.73584%, 87.185669%)" offset="0.554688"/><stop stop-opacity="1" stop-color="rgb(69.894409%, 41.720581%, 87.095642%)" offset="0.558594"/><stop stop-opacity="1" stop-color="rgb(70.161438%, 41.705322%, 87.005615%)" offset="0.5625"/><stop stop-opacity="1" stop-color="rgb(70.426941%, 41.690063%, 86.915588%)" offset="0.566406"/><stop stop-opacity="1" stop-color="rgb(70.69397%, 41.674805%, 86.825562%)" offset="0.570312"/><stop stop-opacity="1" stop-color="rgb(70.960999%, 41.659546%, 86.734009%)" offset="0.574219"/><stop stop-opacity="1" stop-color="rgb(71.228027%, 41.644287%, 86.643982%)" offset="0.578125"/><stop stop-opacity="1" stop-color="rgb(71.49353%, 41.629028%, 86.553955%)" offset="0.582031"/><stop stop-opacity="1" stop-color="rgb(71.760559%, 41.61377%, 86.463928%)" offset="0.585938"/><stop stop-opacity="1" stop-color="rgb(72.026062%, 41.598511%, 86.373901%)" offset="0.589844"/><stop stop-opacity="1" stop-color="rgb(72.293091%, 41.583252%, 86.283875%)" offset="0.59375"/><stop stop-opacity="1" stop-color="rgb(72.558594%, 41.567993%, 86.193848%)" offset="0.597656"/><stop stop-opacity="1" stop-color="rgb(72.825623%, 41.552734%, 86.103821%)" offset="0.601562"/><stop stop-opacity="1" stop-color="rgb(73.091125%, 41.537476%, 86.012268%)" offset="0.605469"/><stop stop-opacity="1" stop-color="rgb(73.358154%, 41.522217%, 85.922241%)" offset="0.609375"/><stop stop-opacity="1" stop-color="rgb(73.623657%, 41.506958%, 85.832214%)" offset="0.613281"/><stop stop-opacity="1" stop-color="rgb(73.890686%, 41.491699%, 85.742188%)" offset="0.617188"/><stop stop-opacity="1" stop-color="rgb(74.157715%, 41.47644%, 85.652161%)" offset="0.621094"/><stop stop-opacity="1" stop-color="rgb(74.424744%, 41.461182%, 85.562134%)" offset="0.625"/><stop stop-opacity="1" stop-color="rgb(74.690247%, 41.445923%, 85.470581%)" offset="0.628906"/><stop stop-opacity="1" stop-color="rgb(74.957275%, 41.430664%, 85.380554%)" offset="0.632812"/><stop stop-opacity="1" stop-color="rgb(75.222778%, 41.415405%, 85.290527%)" offset="0.636719"/><stop stop-opacity="1" stop-color="rgb(75.489807%, 41.400146%, 85.2005%)" offset="0.640625"/><stop stop-opacity="1" stop-color="rgb(75.75531%, 41.384888%, 85.110474%)" offset="0.644531"/><stop stop-opacity="1" stop-color="rgb(76.022339%, 41.369629%, 85.020447%)" offset="0.648438"/><stop stop-opacity="1" stop-color="rgb(76.287842%, 41.35437%, 84.93042%)" offset="0.652344"/><stop stop-opacity="1" stop-color="rgb(76.554871%, 41.339111%, 84.840393%)" offset="0.65625"/><stop stop-opacity="1" stop-color="rgb(76.821899%, 41.323853%, 84.74884%)" offset="0.660156"/><stop stop-opacity="1" stop-color="rgb(77.088928%, 41.31012%, 84.658813%)" offset="0.664062"/><stop stop-opacity="1" stop-color="rgb(77.354431%, 41.294861%, 84.568787%)" offset="0.667969"/><stop stop-opacity="1" stop-color="rgb(77.62146%, 41.279602%, 84.47876%)" offset="0.671875"/><stop stop-opacity="1" stop-color="rgb(77.886963%, 41.264343%, 84.388733%)" offset="0.675781"/><stop stop-opacity="1" stop-color="rgb(78.153992%, 41.249084%, 84.298706%)" offset="0.679688"/><stop stop-opacity="1" stop-color="rgb(78.419495%, 41.233826%, 84.208679%)" offset="0.683594"/><stop stop-opacity="1" stop-color="rgb(78.686523%, 41.218567%, 84.118652%)" offset="0.6875"/><stop stop-opacity="1" stop-color="rgb(78.952026%, 41.203308%, 84.0271%)" offset="0.691406"/><stop stop-opacity="1" stop-color="rgb(79.219055%, 41.188049%, 83.937073%)" offset="0.695312"/><stop stop-opacity="1" stop-color="rgb(79.486084%, 41.172791%, 83.847046%)" offset="0.699219"/><stop stop-opacity="1" stop-color="rgb(79.753113%, 41.157532%, 83.757019%)" offset="0.703125"/><stop stop-opacity="1" stop-color="rgb(80.018616%, 41.142273%, 83.666992%)" offset="0.707031"/><stop stop-opacity="1" stop-color="rgb(80.285645%, 41.127014%, 83.576965%)" offset="0.710938"/><stop stop-opacity="1" stop-color="rgb(80.551147%, 41.111755%, 83.485413%)" offset="0.714844"/><stop stop-opacity="1" stop-color="rgb(80.818176%, 41.096497%, 83.395386%)" offset="0.71875"/><stop stop-opacity="1" stop-color="rgb(81.083679%, 41.081238%, 83.305359%)" offset="0.722656"/><stop stop-opacity="1" stop-color="rgb(81.350708%, 41.065979%, 83.215332%)" offset="0.726562"/><stop stop-opacity="1" stop-color="rgb(81.616211%, 41.05072%, 83.125305%)" offset="0.730469"/><stop stop-opacity="1" stop-color="rgb(81.88324%, 41.035461%, 83.035278%)" offset="0.734375"/><stop stop-opacity="1" stop-color="rgb(82.148743%, 41.020203%, 82.945251%)" offset="0.738281"/><stop stop-opacity="1" stop-color="rgb(82.415771%, 41.004944%, 82.855225%)" offset="0.742188"/><stop stop-opacity="1" stop-color="rgb(82.6828%, 40.989685%, 82.763672%)" offset="0.746094"/><stop stop-opacity="1" stop-color="rgb(82.949829%, 40.974426%, 82.673645%)" offset="0.75"/><stop stop-opacity="1" stop-color="rgb(83.215332%, 40.959167%, 82.583618%)" offset="0.753906"/><stop stop-opacity="1" stop-color="rgb(83.482361%, 40.943909%, 82.493591%)" offset="0.757812"/><stop stop-opacity="1" stop-color="rgb(83.747864%, 40.92865%, 82.403564%)" offset="0.761719"/><stop stop-opacity="1" stop-color="rgb(84.014893%, 40.913391%, 82.313538%)" offset="0.765625"/><stop stop-opacity="1" stop-color="rgb(84.280396%, 40.898132%, 82.223511%)" offset="0.769531"/><stop stop-opacity="1" stop-color="rgb(84.547424%, 40.882874%, 82.133484%)" offset="0.773438"/><stop stop-opacity="1" stop-color="rgb(84.812927%, 40.867615%, 82.041931%)" offset="0.777344"/><stop stop-opacity="1" stop-color="rgb(85.079956%, 40.852356%, 81.951904%)" offset="0.78125"/><stop stop-opacity="1" stop-color="rgb(85.346985%, 40.837097%, 81.861877%)" offset="0.785156"/><stop stop-opacity="1" stop-color="rgb(85.614014%, 40.821838%, 81.771851%)" offset="0.789062"/><stop stop-opacity="1" stop-color="rgb(85.879517%, 40.80658%, 81.681824%)" offset="0.792969"/><stop stop-opacity="1" stop-color="rgb(86.146545%, 40.791321%, 81.591797%)" offset="0.796875"/><stop stop-opacity="1" stop-color="rgb(86.412048%, 40.776062%, 81.500244%)" offset="0.800781"/><stop stop-opacity="1" stop-color="rgb(86.679077%, 40.760803%, 81.410217%)" offset="0.804688"/><stop stop-opacity="1" stop-color="rgb(86.94458%, 40.745544%, 81.32019%)" offset="0.808594"/><stop stop-opacity="1" stop-color="rgb(87.211609%, 40.730286%, 81.230164%)" offset="0.8125"/><stop stop-opacity="1" stop-color="rgb(87.477112%, 40.715027%, 81.140137%)" offset="0.816406"/><stop stop-opacity="1" stop-color="rgb(87.744141%, 40.699768%, 81.05011%)" offset="0.820312"/><stop stop-opacity="1" stop-color="rgb(88.009644%, 40.684509%, 80.960083%)" offset="0.824219"/><stop stop-opacity="1" stop-color="rgb(88.276672%, 40.66925%, 80.870056%)" offset="0.828125"/><stop stop-opacity="1" stop-color="rgb(88.543701%, 40.653992%, 80.778503%)" offset="0.832031"/><stop stop-opacity="1" stop-color="rgb(88.81073%, 40.638733%, 80.688477%)" offset="0.835938"/><stop stop-opacity="1" stop-color="rgb(89.076233%, 40.623474%, 80.59845%)" offset="0.839844"/><stop stop-opacity="1" stop-color="rgb(89.343262%, 40.608215%, 80.508423%)" offset="0.84375"/><stop stop-opacity="1" stop-color="rgb(89.608765%, 40.592957%, 80.418396%)" offset="0.847656"/><stop stop-opacity="1" stop-color="rgb(89.875793%, 40.577698%, 80.328369%)" offset="0.851562"/><stop stop-opacity="1" stop-color="rgb(90.141296%, 40.562439%, 80.238342%)" offset="0.855469"/><stop stop-opacity="1" stop-color="rgb(90.408325%, 40.54718%, 80.148315%)" offset="0.859375"/><stop stop-opacity="1" stop-color="rgb(90.673828%, 40.531921%, 80.056763%)" offset="0.863281"/><stop stop-opacity="1" stop-color="rgb(90.940857%, 40.516663%, 79.966736%)" offset="0.867188"/><stop stop-opacity="1" stop-color="rgb(91.207886%, 40.501404%, 79.876709%)" offset="0.871094"/><stop stop-opacity="1" stop-color="rgb(91.474915%, 40.486145%, 79.786682%)" offset="0.875"/><stop stop-opacity="1" stop-color="rgb(91.740417%, 40.470886%, 79.696655%)" offset="0.878906"/><stop stop-opacity="1" stop-color="rgb(92.007446%, 40.455627%, 79.606628%)" offset="0.882812"/><stop stop-opacity="1" stop-color="rgb(92.272949%, 40.440369%, 79.515076%)" offset="0.886719"/><stop stop-opacity="1" stop-color="rgb(92.539978%, 40.42511%, 79.425049%)" offset="0.890625"/><stop stop-opacity="1" stop-color="rgb(92.805481%, 40.409851%, 79.335022%)" offset="0.894531"/><stop stop-opacity="1" stop-color="rgb(93.07251%, 40.394592%, 79.244995%)" offset="0.898438"/><stop stop-opacity="1" stop-color="rgb(93.338013%, 40.379333%, 79.154968%)" offset="0.902344"/><stop stop-opacity="1" stop-color="rgb(93.605042%, 40.365601%, 79.064941%)" offset="0.90625"/><stop stop-opacity="1" stop-color="rgb(93.870544%, 40.350342%, 78.974915%)" offset="0.910156"/><stop stop-opacity="1" stop-color="rgb(94.137573%, 40.335083%, 78.884888%)" offset="0.914062"/><stop stop-opacity="1" stop-color="rgb(94.404602%, 40.319824%, 78.793335%)" offset="0.917969"/><stop stop-opacity="1" stop-color="rgb(94.671631%, 40.304565%, 78.703308%)" offset="0.921875"/><stop stop-opacity="1" stop-color="rgb(94.937134%, 40.289307%, 78.613281%)" offset="0.925781"/><stop stop-opacity="1" stop-color="rgb(95.204163%, 40.274048%, 78.523254%)" offset="0.929688"/><stop stop-opacity="1" stop-color="rgb(95.469666%, 40.258789%, 78.433228%)" offset="0.933594"/><stop stop-opacity="1" stop-color="rgb(95.736694%, 40.24353%, 78.343201%)" offset="0.9375"/><stop stop-opacity="1" stop-color="rgb(96.002197%, 40.228271%, 78.253174%)" offset="0.941406"/><stop stop-opacity="1" stop-color="rgb(96.269226%, 40.213013%, 78.163147%)" offset="0.945312"/><stop stop-opacity="1" stop-color="rgb(96.534729%, 40.197754%, 78.071594%)" offset="0.949219"/><stop stop-opacity="1" stop-color="rgb(96.801758%, 40.182495%, 77.981567%)" offset="0.953125"/><stop stop-opacity="1" stop-color="rgb(97.068787%, 40.167236%, 77.891541%)" offset="0.957031"/><stop stop-opacity="1" stop-color="rgb(97.335815%, 40.151978%, 77.801514%)" offset="0.960938"/><stop stop-opacity="1" stop-color="rgb(97.601318%, 40.136719%, 77.711487%)" offset="0.964844"/><stop stop-opacity="1" stop-color="rgb(97.868347%, 40.12146%, 77.62146%)" offset="0.96875"/><stop stop-opacity="1" stop-color="rgb(98.13385%, 40.106201%, 77.531433%)" offset="0.972656"/><stop stop-opacity="1" stop-color="rgb(98.400879%, 40.090942%, 77.441406%)" offset="0.976562"/><stop stop-opacity="1" stop-color="rgb(98.666382%, 40.075684%, 77.349854%)" offset="0.980469"/><stop stop-opacity="1" stop-color="rgb(98.933411%, 40.060425%, 77.259827%)" offset="0.984375"/><stop stop-opacity="1" stop-color="rgb(99.198914%, 40.045166%, 77.1698%)" offset="0.988281"/><stop stop-opacity="1" stop-color="rgb(99.465942%, 40.029907%, 77.079773%)" offset="0.992188"/><stop stop-opacity="1" stop-color="rgb(99.731445%, 40.014648%, 76.989746%)" offset="0.996094"/><stop stop-opacity="1" stop-color="rgb(99.998474%, 39.99939%, 76.899719%)" offset="1"/></linearGradient><clipPath id="8593ac0f73"><path d="M 17.128906 51.46875 L 94.488281 51.46875 L 94.488281 60.445312 L 17.128906 60.445312 Z M 17.128906 51.46875 " clip-rule="nonzero"/></clipPath></defs><g clip-path="url(#4dbd64dd12)"><path fill="#ffffff" d="M 0 0 L 112.003906 0 L 112.003906 112.003906 L 0 112.003906 Z M 0 0 " fill-opacity="1" fill-rule="nonzero"/><path fill="url(#d7158b36e4)" d="M 0 0 L 0 112.003906 L 112.003906 112.003906 L 112.003906 0 Z M 0 0 " fill-rule="nonzero"/></g><g fill="#000000" fill-opacity="1"><g transform="translate(55.511454, 72.494619)"><g><path d="M 26.8125 -26.359375 C 26.8125 -27.617188 26.519531 -28.75 25.9375 -29.75 C 25.363281 -30.757812 24.59375 -31.59375 23.625 -32.25 C 22.65625 -32.914062 21.539062 -33.425781 20.28125 -33.78125 C 19.019531 -34.144531 17.707031 -34.328125 16.34375 -34.328125 L 1.484375 -34.328125 L 1.484375 -33.5 L 5.875 -33.5 L 5.875 -0.8125 L 1.484375 -0.8125 L 1.484375 0 L 16.75 0 C 20.289062 0 23.039062 -0.816406 25 -2.453125 C 26.957031 -4.085938 27.9375 -6.351562 27.9375 -9.25 C 27.9375 -10.75 27.640625 -12.054688 27.046875 -13.171875 C 26.453125 -14.296875 25.710938 -15.25 24.828125 -16.03125 C 23.941406 -16.820312 22.960938 -17.425781 21.890625 -17.84375 C 20.816406 -18.269531 19.820312 -18.535156 18.90625 -18.640625 C 20.019531 -18.847656 21.0625 -19.144531 22.03125 -19.53125 C 23.007812 -19.925781 23.847656 -20.4375 24.546875 -21.0625 C 25.242188 -21.695312 25.796875 -22.445312 26.203125 -23.3125 C 26.609375 -24.1875 26.8125 -25.203125 26.8125 -26.359375 Z M 10.828125 -18.953125 L 10.828125 -33.5 L 16.34375 -33.5 C 17.195312 -33.5 17.960938 -33.390625 18.640625 -33.171875 C 19.328125 -32.953125 19.90625 -32.578125 20.375 -32.046875 C 20.851562 -31.523438 21.226562 -30.828125 21.5 -29.953125 C 21.769531 -29.085938 21.90625 -28.023438 21.90625 -26.765625 L 21.90625 -25.953125 C 21.90625 -24.585938 21.769531 -23.453125 21.5 -22.546875 C 21.226562 -21.648438 20.851562 -20.9375 20.375 -20.40625 C 19.90625 -19.875 19.320312 -19.5 18.625 -19.28125 C 17.925781 -19.0625 17.164062 -18.953125 16.34375 -18.953125 Z M 10.828125 -0.8125 L 10.828125 -18.125 L 16.34375 -18.125 C 18.695312 -18.125 20.375 -17.410156 21.375 -15.984375 C 22.382812 -14.554688 22.890625 -12.515625 22.890625 -9.859375 L 22.890625 -8.625 C 22.890625 -6.144531 22.410156 -4.222656 21.453125 -2.859375 C 20.492188 -1.492188 18.789062 -0.8125 16.34375 -0.8125 Z M 10.828125 -0.8125 "/></g></g></g><g fill="#000000" fill-opacity="1"><g transform="translate(21.837305, 73.249444)"><g><path d="M 16.140625 -34.875 L 1.65625 -34.875 L 1.65625 -34.046875 L 5.8125 -34.046875 L 15.875 -17.125 L 15.875 -0.828125 L 10.890625 -0.828125 L 10.890625 0 L 25.890625 0 L 25.890625 -0.828125 L 20.90625 -0.828125 L 20.90625 -18.46875 L 29.46875 -34.046875 L 33.671875 -34.046875 L 33.671875 -34.875 L 23.09375 -34.875 L 23.09375 -34.046875 L 28.125 -34.046875 L 20.078125 -19.40625 L 11.359375 -34.046875 L 16.140625 -34.046875 Z M 16.140625 -34.875 "/></g></g></g><g clip-path="url(#8593ac0f73)"><path fill="#fafafa" d="M 17.128906 51.46875 L 94.507812 51.46875 L 94.507812 60.445312 L 17.128906 60.445312 Z M 17.128906 51.46875 " fill-opacity="1" fill-rule="nonzero"/></g><g fill="#000000" fill-opacity="1"><g transform="translate(26.705679, 57.19486)"><g><path d="M 1.6875 -1 L 1.6875 0 L 1.03125 0 L 1.03125 -1 L -0.0625 -2.8125 L 0.640625 -2.8125 L 1.390625 -1.5625 L 2.140625 -2.8125 L 2.78125 -2.8125 Z M 1.6875 -1 "/></g></g></g><g fill="#000000" fill-opacity="1"><g transform="translate(30.810361, 57.19486)"><g><path d="M 2.515625 -0.515625 L 2.515625 0 L 0.328125 0 L 0.328125 -2.8125 L 2.453125 -2.8125 L 2.453125 -2.28125 L 0.984375 -2.28125 L 0.984375 -1.671875 L 2.28125 -1.671875 L 2.28125 -1.171875 L 0.984375 -1.171875 L 0.984375 -0.515625 Z M 2.515625 -0.515625 "/></g></g></g><g fill="#000000" fill-opacity="1"><g transform="translate(34.894961, 57.19486)"><g><path d="M 1.25 0.046875 C 1.03125 0.046875 0.816406 0.0195312 0.609375 -0.03125 C 0.398438 -0.09375 0.234375 -0.175781 0.109375 -0.28125 L 0.328125 -0.765625 C 0.453125 -0.679688 0.597656 -0.609375 0.765625 -0.546875 C 0.929688 -0.492188 1.097656 -0.46875 1.265625 -0.46875 C 1.441406 -0.46875 1.570312 -0.492188 1.65625 -0.546875 C 1.75 -0.609375 1.796875 -0.6875 1.796875 -0.78125 C 1.796875 -0.84375 1.769531 -0.894531 1.71875 -0.9375 C 1.664062 -0.988281 1.597656 -1.023438 1.515625 -1.046875 C 1.441406 -1.078125 1.332031 -1.109375 1.1875 -1.140625 C 0.976562 -1.191406 0.804688 -1.238281 0.671875 -1.28125 C 0.535156 -1.332031 0.414062 -1.414062 0.3125 -1.53125 C 0.21875 -1.644531 0.171875 -1.796875 0.171875 -1.984375 C 0.171875 -2.148438 0.210938 -2.296875 0.296875 -2.421875 C 0.390625 -2.554688 0.523438 -2.660156 0.703125 -2.734375 C 0.878906 -2.816406 1.097656 -2.859375 1.359375 -2.859375 C 1.535156 -2.859375 1.707031 -2.835938 1.875 -2.796875 C 2.050781 -2.753906 2.203125 -2.691406 2.328125 -2.609375 L 2.125 -2.109375 C 1.863281 -2.265625 1.601562 -2.34375 1.34375 -2.34375 C 1.164062 -2.34375 1.03125 -2.3125 0.9375 -2.25 C 0.851562 -2.1875 0.8125 -2.109375 0.8125 -2.015625 C 0.8125 -1.921875 0.859375 -1.847656 0.953125 -1.796875 C 1.054688 -1.753906 1.210938 -1.707031 1.421875 -1.65625 C 1.640625 -1.613281 1.816406 -1.566406 1.953125 -1.515625 C 2.085938 -1.460938 2.203125 -1.378906 2.296875 -1.265625 C 2.398438 -1.160156 2.453125 -1.015625 2.453125 -0.828125 C 2.453125 -0.660156 2.40625 -0.507812 2.3125 -0.375 C 2.226562 -0.25 2.09375 -0.144531 1.90625 -0.0625 C 1.726562 0.0078125 1.507812 0.046875 1.25 0.046875 Z M 1.25 0.046875 "/></g></g></g><g fill="#000000" fill-opacity="1"><g transform="translate(38.847024, 57.19486)"><g><path d="M 2.515625 -0.515625 L 2.515625 0 L 0.328125 0 L 0.328125 -2.8125 L 2.453125 -2.8125 L 2.453125 -2.28125 L 0.984375 -2.28125 L 0.984375 -1.671875 L 2.28125 -1.671875 L 2.28125 -1.171875 L 0.984375 -1.171875 L 0.984375 -0.515625 Z M 2.515625 -0.515625 "/></g></g></g><g fill="#000000" fill-opacity="1"><g transform="translate(42.931625, 57.19486)"><g><path d="M 2.90625 -2.8125 L 2.90625 0 L 2.375 0 L 0.96875 -1.703125 L 0.96875 0 L 0.328125 0 L 0.328125 -2.8125 L 0.875 -2.8125 L 2.265625 -1.109375 L 2.265625 -2.8125 Z M 2.90625 -2.8125 "/></g></g></g><g fill="#000000" fill-opacity="1"><g transform="translate(47.566453, 57.19486)"><g><path d="M 0.328125 -2.8125 L 0.984375 -2.8125 L 0.984375 0 L 0.328125 0 Z M 0.328125 -2.8125 "/></g></g></g><g fill="#000000" fill-opacity="1"><g transform="translate(50.273483, 57.19486)"><g><path d="M 2.1875 -0.609375 L 0.875 -0.609375 L 0.625 0 L -0.03125 0 L 1.21875 -2.8125 L 1.859375 -2.8125 L 3.109375 0 L 2.4375 0 Z M 1.984375 -1.09375 L 1.53125 -2.171875 L 1.09375 -1.09375 Z M 1.984375 -1.09375 "/></g></g></g><g fill="#000000" fill-opacity="1"><g transform="translate(54.739627, 57.19486)"><g/></g></g><g fill="#000000" fill-opacity="1"><g transform="translate(57.265923, 57.19486)"><g><path d="M 2.390625 -1.46875 C 2.554688 -1.414062 2.679688 -1.328125 2.765625 -1.203125 C 2.859375 -1.085938 2.90625 -0.941406 2.90625 -0.765625 C 2.90625 -0.515625 2.8125 -0.320312 2.625 -0.1875 C 2.4375 -0.0625 2.15625 0 1.78125 0 L 0.328125 0 L 0.328125 -2.8125 L 1.703125 -2.8125 C 2.046875 -2.8125 2.304688 -2.742188 2.484375 -2.609375 C 2.671875 -2.484375 2.765625 -2.304688 2.765625 -2.078125 C 2.765625 -1.941406 2.734375 -1.816406 2.671875 -1.703125 C 2.609375 -1.597656 2.515625 -1.519531 2.390625 -1.46875 Z M 0.984375 -2.328125 L 0.984375 -1.65625 L 1.625 -1.65625 C 1.789062 -1.65625 1.910156 -1.679688 1.984375 -1.734375 C 2.066406 -1.796875 2.109375 -1.878906 2.109375 -1.984375 C 2.109375 -2.097656 2.066406 -2.179688 1.984375 -2.234375 C 1.910156 -2.296875 1.789062 -2.328125 1.625 -2.328125 Z M 1.734375 -0.484375 C 1.910156 -0.484375 2.039062 -0.507812 2.125 -0.5625 C 2.207031 -0.625 2.25 -0.710938 2.25 -0.828125 C 2.25 -1.066406 2.078125 -1.1875 1.734375 -1.1875 L 0.984375 -1.1875 L 0.984375 -0.484375 Z M 1.734375 -0.484375 "/></g></g></g><g fill="#000000" fill-opacity="1"><g transform="translate(61.728052, 57.19486)"><g><path d="M 2.515625 -0.515625 L 2.515625 0 L 0.328125 0 L 0.328125 -2.8125 L 2.453125 -2.8125 L 2.453125 -2.28125 L 0.984375 -2.28125 L 0.984375 -1.671875 L 2.28125 -1.671875 L 2.28125 -1.171875 L 0.984375 -1.171875 L 0.984375 -0.515625 Z M 2.515625 -0.515625 "/></g></g></g><g fill="#000000" fill-opacity="1"><g transform="translate(65.812651, 57.19486)"><g><path d="M 2.90625 -2.8125 L 2.90625 0 L 2.375 0 L 0.96875 -1.703125 L 0.96875 0 L 0.328125 0 L 0.328125 -2.8125 L 0.875 -2.8125 L 2.265625 -1.109375 L 2.265625 -2.8125 Z M 2.90625 -2.8125 "/></g></g></g><g fill="#000000" fill-opacity="1"><g transform="translate(70.44748, 57.19486)"><g><path d="M 0.328125 -2.8125 L 0.984375 -2.8125 L 0.984375 0 L 0.328125 0 Z M 0.328125 -2.8125 "/></g></g></g><g fill="#000000" fill-opacity="1"><g transform="translate(73.154508, 57.19486)"><g><path d="M 0.921875 -2.28125 L 0.015625 -2.28125 L 0.015625 -2.8125 L 2.46875 -2.8125 L 2.46875 -2.28125 L 1.5625 -2.28125 L 1.5625 0 L 0.921875 0 Z M 0.921875 -2.28125 "/></g></g></g><g fill="#000000" fill-opacity="1"><g transform="translate(77.026246, 57.19486)"><g><path d="M 2.515625 -0.515625 L 2.515625 0 L 0.328125 0 L 0.328125 -2.8125 L 2.453125 -2.8125 L 2.453125 -2.28125 L 0.984375 -2.28125 L 0.984375 -1.671875 L 2.28125 -1.671875 L 2.28125 -1.171875 L 0.984375 -1.171875 L 0.984375 -0.515625 Z M 2.515625 -0.515625 "/></g></g></g><g fill="#000000" fill-opacity="1"><g transform="translate(81.110846, 57.19486)"><g><path d="M 2.609375 -0.53125 L 2.609375 0 L 0.15625 0 L 0.15625 -0.421875 L 1.6875 -2.28125 L 0.1875 -2.28125 L 0.1875 -2.8125 L 2.546875 -2.8125 L 2.546875 -2.390625 L 1.015625 -0.53125 Z M 2.609375 -0.53125 "/></g></g></g><g fill="#000000" fill-opacity="1"><g transform="translate(42.388723, 78.972897)"><g><path d="M 0.78125 0.015625 C 0.644531 0.015625 0.515625 -0.00390625 0.390625 -0.046875 C 0.273438 -0.0859375 0.1875 -0.144531 0.125 -0.21875 L 0.1875 -0.359375 C 0.25 -0.296875 0.332031 -0.242188 0.4375 -0.203125 C 0.550781 -0.160156 0.664062 -0.140625 0.78125 -0.140625 C 0.9375 -0.140625 1.050781 -0.164062 1.125 -0.21875 C 1.207031 -0.28125 1.25 -0.359375 1.25 -0.453125 C 1.25 -0.523438 1.226562 -0.582031 1.1875 -0.625 C 1.144531 -0.664062 1.09375 -0.695312 1.03125 -0.71875 C 0.96875 -0.75 0.878906 -0.773438 0.765625 -0.796875 C 0.628906 -0.828125 0.519531 -0.859375 0.4375 -0.890625 C 0.363281 -0.921875 0.296875 -0.96875 0.234375 -1.03125 C 0.179688 -1.101562 0.15625 -1.191406 0.15625 -1.296875 C 0.15625 -1.390625 0.175781 -1.472656 0.21875 -1.546875 C 0.269531 -1.617188 0.34375 -1.675781 0.4375 -1.71875 C 0.539062 -1.757812 0.664062 -1.78125 0.8125 -1.78125 C 0.914062 -1.78125 1.015625 -1.765625 1.109375 -1.734375 C 1.210938 -1.710938 1.296875 -1.675781 1.359375 -1.625 L 1.296875 -1.484375 C 1.222656 -1.523438 1.144531 -1.554688 1.0625 -1.578125 C 0.976562 -1.609375 0.894531 -1.625 0.8125 -1.625 C 0.65625 -1.625 0.535156 -1.59375 0.453125 -1.53125 C 0.378906 -1.476562 0.34375 -1.40625 0.34375 -1.3125 C 0.34375 -1.238281 0.363281 -1.179688 0.40625 -1.140625 C 0.445312 -1.097656 0.5 -1.0625 0.5625 -1.03125 C 0.632812 -1.007812 0.722656 -0.988281 0.828125 -0.96875 C 0.960938 -0.925781 1.066406 -0.890625 1.140625 -0.859375 C 1.222656 -0.828125 1.289062 -0.78125 1.34375 -0.71875 C 1.40625 -0.65625 1.4375 -0.570312 1.4375 -0.46875 C 1.4375 -0.375 1.410156 -0.289062 1.359375 -0.21875 C 1.316406 -0.144531 1.242188 -0.0859375 1.140625 -0.046875 C 1.046875 -0.00390625 0.925781 0.015625 0.78125 0.015625 Z M 0.78125 0.015625 "/></g></g></g><g fill="#000000" fill-opacity="1"><g transform="translate(45.70789, 78.972897)"><g><path d="M 1.0625 0.015625 C 0.882812 0.015625 0.722656 -0.0195312 0.578125 -0.09375 C 0.441406 -0.175781 0.332031 -0.285156 0.25 -0.421875 C 0.164062 -0.554688 0.125 -0.710938 0.125 -0.890625 C 0.125 -1.054688 0.164062 -1.207031 0.25 -1.34375 C 0.332031 -1.476562 0.441406 -1.582031 0.578125 -1.65625 C 0.722656 -1.738281 0.882812 -1.78125 1.0625 -1.78125 C 1.238281 -1.78125 1.394531 -1.738281 1.53125 -1.65625 C 1.675781 -1.582031 1.785156 -1.476562 1.859375 -1.34375 C 1.941406 -1.207031 1.984375 -1.054688 1.984375 -0.890625 C 1.984375 -0.710938 1.941406 -0.554688 1.859375 -0.421875 C 1.785156 -0.285156 1.675781 -0.175781 1.53125 -0.09375 C 1.394531 -0.0195312 1.238281 0.015625 1.0625 0.015625 Z M 1.0625 -0.15625 C 1.195312 -0.15625 1.320312 -0.1875 1.4375 -0.25 C 1.550781 -0.3125 1.640625 -0.394531 1.703125 -0.5 C 1.773438 -0.613281 1.8125 -0.742188 1.8125 -0.890625 C 1.8125 -1.023438 1.773438 -1.148438 1.703125 -1.265625 C 1.640625 -1.378906 1.550781 -1.46875 1.4375 -1.53125 C 1.320312 -1.59375 1.195312 -1.625 1.0625 -1.625 C 0.925781 -1.625 0.800781 -1.59375 0.6875 -1.53125 C 0.570312 -1.46875 0.476562 -1.378906 0.40625 -1.265625 C 0.34375 -1.148438 0.3125 -1.023438 0.3125 -0.890625 C 0.3125 -0.742188 0.34375 -0.613281 0.40625 -0.5 C 0.476562 -0.394531 0.570312 -0.3125 0.6875 -0.25 C 0.800781 -0.1875 0.925781 -0.15625 1.0625 -0.15625 Z M 1.0625 -0.15625 "/></g></g></g><g fill="#000000" fill-opacity="1"><g transform="translate(49.593746, 78.972897)"><g><path d="M 0.46875 -1.609375 L 0.46875 -0.90625 L 1.390625 -0.90625 L 1.390625 -0.75 L 0.46875 -0.75 L 0.46875 0 L 0.28125 0 L 0.28125 -1.765625 L 1.5 -1.765625 L 1.5 -1.609375 Z M 0.46875 -1.609375 "/></g></g></g><g fill="#000000" fill-opacity="1"><g transform="translate(52.958452, 78.972897)"><g><path d="M 0.640625 -1.609375 L 0.015625 -1.609375 L 0.015625 -1.765625 L 1.4375 -1.765625 L 1.4375 -1.609375 L 0.8125 -1.609375 L 0.8125 0 L 0.640625 0 Z M 0.640625 -1.609375 "/></g></g></g><g fill="#000000" fill-opacity="1"><g transform="translate(56.173894, 78.972897)"><g><path d="M 2.71875 -1.765625 L 2.125 0 L 1.921875 0 L 1.40625 -1.515625 L 0.890625 0 L 0.6875 0 L 0.09375 -1.765625 L 0.28125 -1.765625 L 0.796875 -0.25 L 1.328125 -1.765625 L 1.5 -1.765625 L 2.015625 -0.234375 L 2.546875 -1.765625 Z M 2.71875 -1.765625 "/></g></g></g><g fill="#000000" fill-opacity="1"><g transform="translate(60.747872, 78.972897)"><g><path d="M 1.40625 -0.46875 L 0.40625 -0.46875 L 0.203125 0 L 0 0 L 0.8125 -1.765625 L 1 -1.765625 L 1.8125 0 L 1.609375 0 Z M 1.328125 -0.625 L 0.90625 -1.578125 L 0.484375 -0.625 Z M 1.328125 -0.625 "/></g></g></g><g fill="#000000" fill-opacity="1"><g transform="translate(64.325086, 78.972897)"><g><path d="M 1.5 0 L 1.09375 -0.5625 C 1.050781 -0.5625 1.003906 -0.5625 0.953125 -0.5625 L 0.46875 -0.5625 L 0.46875 0 L 0.28125 0 L 0.28125 -1.765625 L 0.953125 -1.765625 C 1.179688 -1.765625 1.359375 -1.710938 1.484375 -1.609375 C 1.609375 -1.503906 1.671875 -1.359375 1.671875 -1.171875 C 1.671875 -1.023438 1.632812 -0.90625 1.5625 -0.8125 C 1.5 -0.71875 1.398438 -0.648438 1.265625 -0.609375 L 1.703125 0 Z M 0.953125 -0.71875 C 1.117188 -0.71875 1.25 -0.753906 1.34375 -0.828125 C 1.4375 -0.910156 1.484375 -1.023438 1.484375 -1.171875 C 1.484375 -1.304688 1.4375 -1.410156 1.34375 -1.484375 C 1.25 -1.566406 1.117188 -1.609375 0.953125 -1.609375 L 0.46875 -1.609375 L 0.46875 -0.71875 Z M 0.953125 -0.71875 "/></g></g></g><g fill="#000000" fill-opacity="1"><g transform="translate(67.917477, 78.972897)"><g><path d="M 1.546875 -0.15625 L 1.546875 0 L 0.28125 0 L 0.28125 -1.765625 L 1.5 -1.765625 L 1.5 -1.609375 L 0.46875 -1.609375 L 0.46875 -0.984375 L 1.390625 -0.984375 L 1.390625 -0.8125 L 0.46875 -0.8125 L 0.46875 -0.15625 Z M 1.546875 -0.15625 "/></g></g></g><g fill="#000000" fill-opacity="1"><g transform="translate(40.850393, 82.346023)"><g><path d="M 0.28125 -1.765625 L 1.015625 -1.765625 C 1.203125 -1.765625 1.363281 -1.726562 1.5 -1.65625 C 1.644531 -1.582031 1.753906 -1.476562 1.828125 -1.34375 C 1.910156 -1.207031 1.953125 -1.054688 1.953125 -0.890625 C 1.953125 -0.710938 1.910156 -0.554688 1.828125 -0.421875 C 1.753906 -0.285156 1.644531 -0.179688 1.5 -0.109375 C 1.363281 -0.0351562 1.203125 0 1.015625 0 L 0.28125 0 Z M 1 -0.15625 C 1.15625 -0.15625 1.289062 -0.1875 1.40625 -0.25 C 1.519531 -0.3125 1.609375 -0.394531 1.671875 -0.5 C 1.742188 -0.613281 1.78125 -0.742188 1.78125 -0.890625 C 1.78125 -1.023438 1.742188 -1.144531 1.671875 -1.25 C 1.609375 -1.363281 1.519531 -1.453125 1.40625 -1.515625 C 1.289062 -1.578125 1.15625 -1.609375 1 -1.609375 L 0.46875 -1.609375 L 0.46875 -0.15625 Z M 1 -0.15625 "/></g></g></g><g fill="#000000" fill-opacity="1"><g transform="translate(44.70336, 82.346023)"><g><path d="M 1.546875 -0.15625 L 1.546875 0 L 0.28125 0 L 0.28125 -1.765625 L 1.5 -1.765625 L 1.5 -1.609375 L 0.46875 -1.609375 L 0.46875 -0.984375 L 1.390625 -0.984375 L 1.390625 -0.8125 L 0.46875 -0.8125 L 0.46875 -0.15625 Z M 1.546875 -0.15625 "/></g></g></g><g fill="#000000" fill-opacity="1"><g transform="translate(48.159141, 82.346023)"><g><path d="M 1.765625 -1.765625 L 0.984375 0 L 0.796875 0 L 0 -1.765625 L 0.203125 -1.765625 L 0.890625 -0.234375 L 1.578125 -1.765625 Z M 1.765625 -1.765625 "/></g></g></g><g fill="#000000" fill-opacity="1"><g transform="translate(51.688286, 82.346023)"><g><path d="M 1.546875 -0.15625 L 1.546875 0 L 0.28125 0 L 0.28125 -1.765625 L 1.5 -1.765625 L 1.5 -1.609375 L 0.46875 -1.609375 L 0.46875 -0.984375 L 1.390625 -0.984375 L 1.390625 -0.8125 L 0.46875 -0.8125 L 0.46875 -0.15625 Z M 1.546875 -0.15625 "/></g></g></g><g fill="#000000" fill-opacity="1"><g transform="translate(55.144066, 82.346023)"><g><path d="M 0.28125 -1.765625 L 0.46875 -1.765625 L 0.46875 -0.15625 L 1.46875 -0.15625 L 1.46875 0 L 0.28125 0 Z M 0.28125 -1.765625 "/></g></g></g><g fill="#000000" fill-opacity="1"><g transform="translate(58.397458, 82.346023)"><g><path d="M 1.0625 0.015625 C 0.882812 0.015625 0.722656 -0.0195312 0.578125 -0.09375 C 0.441406 -0.175781 0.332031 -0.285156 0.25 -0.421875 C 0.164062 -0.554688 0.125 -0.710938 0.125 -0.890625 C 0.125 -1.054688 0.164062 -1.207031 0.25 -1.34375 C 0.332031 -1.476562 0.441406 -1.582031 0.578125 -1.65625 C 0.722656 -1.738281 0.882812 -1.78125 1.0625 -1.78125 C 1.238281 -1.78125 1.394531 -1.738281 1.53125 -1.65625 C 1.675781 -1.582031 1.785156 -1.476562 1.859375 -1.34375 C 1.941406 -1.207031 1.984375 -1.054688 1.984375 -0.890625 C 1.984375 -0.710938 1.941406 -0.554688 1.859375 -0.421875 C 1.785156 -0.285156 1.675781 -0.175781 1.53125 -0.09375 C 1.394531 -0.0195312 1.238281 0.015625 1.0625 0.015625 Z M 1.0625 -0.15625 C 1.195312 -0.15625 1.320312 -0.1875 1.4375 -0.25 C 1.550781 -0.3125 1.640625 -0.394531 1.703125 -0.5 C 1.773438 -0.613281 1.8125 -0.742188 1.8125 -0.890625 C 1.8125 -1.023438 1.773438 -1.148438 1.703125 -1.265625 C 1.640625 -1.378906 1.550781 -1.46875 1.4375 -1.53125 C 1.320312 -1.59375 1.195312 -1.625 1.0625 -1.625 C 0.925781 -1.625 0.800781 -1.59375 0.6875 -1.53125 C 0.570312 -1.46875 0.476562 -1.378906 0.40625 -1.265625 C 0.34375 -1.148438 0.3125 -1.023438 0.3125 -0.890625 C 0.3125 -0.742188 0.34375 -0.613281 0.40625 -0.5 C 0.476562 -0.394531 0.570312 -0.3125 0.6875 -0.25 C 0.800781 -0.1875 0.925781 -0.15625 1.0625 -0.15625 Z M 1.0625 -0.15625 "/></g></g></g><g fill="#000000" fill-opacity="1"><g transform="translate(62.283313, 82.346023)"><g><path d="M 0.953125 -1.765625 C 1.179688 -1.765625 1.359375 -1.710938 1.484375 -1.609375 C 1.609375 -1.503906 1.671875 -1.359375 1.671875 -1.171875 C 1.671875 -0.972656 1.609375 -0.820312 1.484375 -0.71875 C 1.359375 -0.613281 1.179688 -0.5625 0.953125 -0.5625 L 0.46875 -0.5625 L 0.46875 0 L 0.28125 0 L 0.28125 -1.765625 Z M 0.953125 -0.71875 C 1.117188 -0.71875 1.25 -0.753906 1.34375 -0.828125 C 1.4375 -0.910156 1.484375 -1.023438 1.484375 -1.171875 C 1.484375 -1.304688 1.4375 -1.410156 1.34375 -1.484375 C 1.25 -1.566406 1.117188 -1.609375 0.953125 -1.609375 L 0.46875 -1.609375 L 0.46875 -0.71875 Z M 0.953125 -0.71875 "/></g></g></g><g fill="#000000" fill-opacity="1"><g transform="translate(65.863056, 82.346023)"><g><path d="M 1.546875 -0.15625 L 1.546875 0 L 0.28125 0 L 0.28125 -1.765625 L 1.5 -1.765625 L 1.5 -1.609375 L 0.46875 -1.609375 L 0.46875 -0.984375 L 1.390625 -0.984375 L 1.390625 -0.8125 L 0.46875 -0.8125 L 0.46875 -0.15625 Z M 1.546875 -0.15625 "/></g></g></g><g fill="#000000" fill-opacity="1"><g transform="translate(69.318837, 82.346023)"><g><path d="M 1.5 0 L 1.09375 -0.5625 C 1.050781 -0.5625 1.003906 -0.5625 0.953125 -0.5625 L 0.46875 -0.5625 L 0.46875 0 L 0.28125 0 L 0.28125 -1.765625 L 0.953125 -1.765625 C 1.179688 -1.765625 1.359375 -1.710938 1.484375 -1.609375 C 1.609375 -1.503906 1.671875 -1.359375 1.671875 -1.171875 C 1.671875 -1.023438 1.632812 -0.90625 1.5625 -0.8125 C 1.5 -0.71875 1.398438 -0.648438 1.265625 -0.609375 L 1.703125 0 Z M 0.953125 -0.71875 C 1.117188 -0.71875 1.25 -0.753906 1.34375 -0.828125 C 1.4375 -0.910156 1.484375 -1.023438 1.484375 -1.171875 C 1.484375 -1.304688 1.4375 -1.410156 1.34375 -1.484375 C 1.25 -1.566406 1.117188 -1.609375 0.953125 -1.609375 L 0.46875 -1.609375 L 0.46875 -0.71875 Z M 0.953125 -0.71875 "/></g></g></g></svg>